<svg width="13" height="13" viewBox="0 0 13 13" fill="#C9AC8C" xmlns="http://www.w3.org/2000/svg">
<path d="M12.6182 4.56169C12.5408 4.33488 12.3362 4.17468 12.0974 4.15608L8.67666 3.88427L7.19641 0.607562C7.09981 0.392155 6.8856 0.25415 6.64979 0.25415C6.41398 0.25415 6.19978 0.392155 6.10317 0.606962L4.62293 3.88427L1.20221 4.15608C0.967607 4.17468 0.7654 4.32888 0.685598 4.55029C0.605795 4.7717 0.662197 5.01951 0.830803 5.18391L3.35869 7.64819L2.46466 11.5195C2.40945 11.7589 2.50606 12.0079 2.70826 12.1477C2.81147 12.2185 2.93027 12.2545 3.04967 12.2545C3.16548 12.2545 3.28188 12.2209 3.38269 12.1537L6.64979 9.97567L9.9169 12.1537C10.1257 12.2929 10.3999 12.2875 10.6039 12.1393C10.8067 11.9911 10.8961 11.7313 10.8271 11.4901L9.72969 7.64999L12.4514 5.20071C12.6296 5.03991 12.695 4.7891 12.6182 4.56169Z" fill="#C9AC8C"/>
</svg>
