<svg width="1283" height="322" viewBox="0 0 1283 322" fill="none" xmlns="http://www.w3.org/2000/svg">
<g clip-path="url(#clip0)">
<g filter="url(#filter0_d)">
<rect x="0.0307617" width="1281.49" height="321.853" fill="url(#paint0_radial)"/>
</g>
<g clip-path="url(#clip1)">
<path d="M1126.65 152.492C1126.65 154.041 1127.15 155.549 1128.11 156.847C1128.24 157.098 1128.41 157.35 1128.66 157.559C1128.87 157.81 1129.12 157.978 1129.37 158.103C1132.16 160.155 1136.13 160.113 1138.72 157.559C1140.06 156.219 1140.77 154.376 1140.81 152.45C1140.77 150.565 1140.06 148.681 1138.72 147.341C1136.17 144.786 1132.16 144.745 1129.37 146.797C1129.12 146.922 1128.87 147.09 1128.66 147.341C1128.41 147.55 1128.24 147.802 1128.11 148.053C1127.15 149.393 1126.65 150.942 1126.65 152.492ZM1137.22 126.905C1136.13 127.994 1135.42 129.459 1135.17 131.009C1135.09 131.302 1135.05 131.595 1135.05 131.93C1135.05 132.265 1135.09 132.558 1135.17 132.81C1135.71 136.244 1138.55 139.049 1142.15 139.049C1144.03 139.049 1145.86 138.254 1147.2 136.955C1148.49 135.573 1149.29 133.731 1149.29 131.888C1149.29 128.245 1146.49 125.439 1143.06 124.895C1142.81 124.811 1142.52 124.769 1142.19 124.769C1141.85 124.769 1141.56 124.811 1141.27 124.895C1139.72 125.104 1138.3 125.816 1137.22 126.905ZM1162.73 116.31C1161.19 116.31 1159.69 116.813 1158.39 117.776C1158.14 117.901 1157.89 118.069 1157.68 118.32C1157.43 118.53 1157.26 118.781 1157.14 119.032C1155.09 121.838 1155.13 125.816 1157.68 128.413C1159.02 129.753 1160.86 130.464 1162.78 130.506C1164.66 130.464 1166.54 129.753 1167.87 128.413C1170.42 125.858 1170.46 121.838 1168.41 119.032C1168.29 118.781 1168.12 118.53 1167.87 118.32C1167.66 118.069 1167.41 117.901 1167.16 117.776C1165.78 116.813 1164.24 116.31 1162.73 116.31ZM1188.25 126.905C1187.17 125.816 1185.7 125.104 1184.16 124.853C1183.91 124.769 1183.57 124.727 1183.24 124.727C1182.91 124.727 1182.61 124.769 1182.36 124.853C1178.94 125.397 1176.14 128.245 1176.14 131.846C1176.14 133.731 1176.93 135.573 1178.23 136.914C1179.61 138.212 1181.44 139.007 1183.28 139.007C1186.92 139.007 1189.71 136.202 1190.26 132.768C1190.34 132.516 1190.38 132.223 1190.38 131.888C1190.38 131.553 1190.34 131.26 1190.26 130.967C1190.05 129.418 1189.3 127.994 1188.25 126.905ZM1198.82 152.492C1198.82 150.942 1198.32 149.435 1197.36 148.137C1197.23 147.885 1197.06 147.634 1196.81 147.425C1196.6 147.173 1196.35 147.006 1196.1 146.88C1193.3 144.828 1189.34 144.87 1186.75 147.425C1185.41 148.765 1184.7 150.607 1184.66 152.534C1184.7 154.418 1185.45 156.303 1186.75 157.643C1189.3 160.197 1193.3 160.239 1196.1 158.187C1196.35 158.061 1196.6 157.894 1196.81 157.643C1197.06 157.433 1197.23 157.182 1197.36 156.931C1198.32 155.549 1198.78 153.999 1198.82 152.492ZM1188.25 178.079C1189.34 176.99 1190.05 175.524 1190.3 173.975C1190.38 173.723 1190.42 173.388 1190.42 173.053C1190.42 172.718 1190.38 172.425 1190.3 172.174C1189.75 168.74 1186.92 165.934 1183.32 165.934C1181.44 165.934 1179.61 166.73 1178.27 168.028C1176.98 169.41 1176.18 171.253 1176.18 173.095C1176.18 176.739 1178.98 179.544 1182.4 180.089C1182.66 180.172 1182.95 180.214 1183.28 180.214C1183.62 180.214 1183.91 180.172 1184.2 180.089C1185.7 179.879 1187.17 179.126 1188.25 178.079ZM1162.73 188.674C1164.28 188.674 1165.78 188.171 1167.08 187.208C1167.33 187.082 1167.58 186.915 1167.79 186.663C1168.04 186.454 1168.21 186.203 1168.33 185.952C1170.38 183.146 1170.34 179.167 1167.79 176.571C1166.45 175.231 1164.61 174.519 1162.69 174.477C1160.81 174.519 1158.93 175.273 1157.6 176.571C1155.05 179.126 1155.01 183.146 1157.06 185.952C1157.18 186.203 1157.35 186.454 1157.6 186.663C1157.81 186.915 1158.06 187.082 1158.31 187.208C1159.64 188.171 1161.19 188.632 1162.73 188.674ZM1137.22 178.079C1138.3 179.167 1139.77 179.879 1141.31 180.131C1141.6 180.214 1141.9 180.256 1142.23 180.256C1142.56 180.256 1142.86 180.214 1143.11 180.131C1146.53 179.586 1149.33 176.739 1149.33 173.137C1149.33 171.253 1148.54 169.41 1147.24 168.07C1145.86 166.772 1144.03 165.976 1142.19 165.976C1138.55 165.976 1135.76 168.782 1135.21 172.216C1135.13 172.467 1135.09 172.76 1135.09 173.095C1135.09 173.43 1135.13 173.723 1135.21 174.017C1135.42 175.524 1136.13 176.99 1137.22 178.079ZM1135.34 152.492C1135.34 152.827 1135.21 153.204 1134.96 153.539C1134.38 154.334 1133.17 154.334 1132.5 153.664C1132.21 153.329 1132.04 152.911 1132.04 152.45C1132.04 152.031 1132.21 151.57 1132.5 151.235C1133.17 150.607 1134.38 150.607 1134.96 151.361C1135.26 151.78 1135.34 152.115 1135.34 152.492ZM1143.36 133.061C1143.11 133.312 1142.77 133.48 1142.35 133.563C1141.39 133.689 1140.56 132.851 1140.52 131.93C1140.52 131.47 1140.73 131.051 1141.06 130.758C1141.35 130.464 1141.77 130.255 1142.23 130.213C1143.15 130.255 1143.98 131.093 1143.86 132.056C1143.82 132.475 1143.61 132.81 1143.36 133.061ZM1162.73 125.02C1162.4 125.02 1162.02 124.895 1161.69 124.644C1160.9 124.057 1160.9 122.843 1161.57 122.173C1161.9 121.88 1162.32 121.712 1162.78 121.712C1163.19 121.712 1163.65 121.88 1163.99 122.173C1164.61 122.843 1164.61 124.057 1163.86 124.644C1163.44 124.937 1163.07 125.02 1162.73 125.02ZM1182.07 133.061C1181.82 132.81 1181.65 132.475 1181.57 132.056C1181.44 131.093 1182.28 130.255 1183.2 130.213C1183.66 130.213 1184.08 130.423 1184.37 130.758C1184.66 131.051 1184.87 131.47 1184.91 131.93C1184.87 132.851 1184.03 133.689 1183.07 133.563C1182.66 133.522 1182.32 133.312 1182.07 133.061ZM1190.09 152.492C1190.09 152.157 1190.21 151.78 1190.46 151.445C1191.05 150.649 1192.26 150.649 1192.93 151.319C1193.22 151.654 1193.39 152.073 1193.39 152.534C1193.39 152.952 1193.22 153.413 1192.93 153.748C1192.26 154.376 1191.05 154.376 1190.46 153.622C1190.21 153.204 1190.09 152.827 1190.09 152.492ZM1182.07 171.881C1182.32 171.63 1182.66 171.462 1183.07 171.378C1184.03 171.253 1184.87 172.09 1184.91 173.012C1184.91 173.472 1184.7 173.891 1184.37 174.184C1184.08 174.477 1183.66 174.687 1183.2 174.728C1182.28 174.687 1181.44 173.849 1181.57 172.886C1181.65 172.467 1181.82 172.132 1182.07 171.881ZM1162.73 179.921C1163.07 179.921 1163.44 180.047 1163.78 180.298C1164.57 180.884 1164.57 182.099 1163.9 182.769C1163.57 183.062 1163.15 183.229 1162.69 183.229C1162.28 183.229 1161.82 183.062 1161.48 182.769C1160.86 182.099 1160.86 180.884 1161.61 180.298C1162.02 180.047 1162.36 179.921 1162.73 179.921ZM1143.36 171.881C1143.61 172.132 1143.77 172.467 1143.86 172.886C1143.98 173.849 1143.15 174.687 1142.23 174.728C1141.77 174.728 1141.35 174.519 1141.06 174.184C1140.77 173.891 1140.56 173.472 1140.52 173.012C1140.56 172.09 1141.39 171.253 1142.35 171.378C1142.77 171.462 1143.11 171.63 1143.36 171.881Z" fill="white" fill-opacity="0.1"/>
<path d="M1114.62 152.492C1115.21 154.167 1115.92 155.758 1116.59 157.224C1118.43 161.328 1120.72 165.223 1123.27 168.908C1124.06 173.347 1125.23 177.702 1126.82 181.89C1127.36 183.397 1128.03 184.989 1128.78 186.622C1130.37 187.376 1132 188.004 1133.5 188.59C1137.72 190.181 1142.06 191.312 1146.45 192.15C1150.12 194.704 1154.01 196.965 1158.1 198.85C1159.56 199.52 1161.15 200.19 1162.82 200.818C1164.49 200.232 1166.08 199.52 1167.54 198.85C1171.63 196.965 1175.51 194.704 1179.19 192.15C1183.62 191.354 1187.96 190.181 1192.14 188.59C1193.64 188.046 1195.23 187.376 1196.85 186.622C1197.61 185.03 1198.23 183.397 1198.82 181.89C1200.4 177.66 1201.53 173.305 1202.37 168.908C1204.92 165.223 1207.17 161.328 1209.05 157.224C1209.72 155.758 1210.39 154.167 1211.01 152.492C1210.43 150.817 1209.72 149.226 1209.05 147.76C1207.21 143.656 1204.92 139.761 1202.37 136.076C1201.57 131.637 1200.4 127.282 1198.82 123.094C1198.27 121.587 1197.61 119.996 1196.85 118.362C1195.27 117.609 1193.64 116.98 1192.14 116.394C1187.92 114.803 1183.57 113.672 1179.19 112.835C1175.51 110.28 1171.63 108.019 1167.54 106.134C1166.08 105.464 1164.49 104.794 1162.82 104.166C1161.15 104.752 1159.56 105.464 1158.1 106.134C1154.01 107.977 1150.12 110.28 1146.45 112.835C1142.02 113.63 1137.68 114.803 1133.5 116.394C1132 116.938 1130.41 117.609 1128.78 118.362C1128.03 119.954 1127.4 121.587 1126.82 123.094C1125.23 127.324 1124.11 131.679 1123.27 136.076C1120.72 139.761 1118.47 143.656 1116.59 147.76C1115.88 149.226 1115.21 150.817 1114.62 152.492ZM1128.45 166.73C1126.36 163.757 1124.48 160.658 1122.81 157.434C1122.14 156.135 1121.27 154.418 1120.47 152.492C1121.31 150.566 1122.14 148.849 1122.81 147.551C1124.48 144.284 1126.36 141.227 1128.45 138.254C1129.07 134.694 1129.91 131.135 1131.04 127.659C1131.5 126.277 1132.08 124.434 1132.88 122.508C1134.84 121.712 1136.63 121.126 1138.01 120.666C1141.48 119.535 1144.99 118.697 1148.58 118.069C1151.54 115.975 1154.63 114.091 1157.85 112.416C1159.14 111.746 1160.86 110.866 1162.78 110.071C1164.7 110.908 1166.41 111.746 1167.7 112.416C1170.96 114.091 1174.01 115.975 1176.98 118.069C1180.53 118.697 1184.08 119.535 1187.54 120.666C1188.92 121.126 1190.76 121.712 1192.68 122.508C1193.47 124.476 1194.06 126.277 1194.52 127.659C1195.64 131.135 1196.48 134.652 1197.11 138.254C1199.19 141.227 1201.07 144.326 1202.74 147.551C1203.41 148.849 1204.29 150.566 1205.08 152.492C1204.25 154.418 1203.41 156.135 1202.74 157.434C1201.07 160.7 1199.19 163.757 1197.11 166.73C1196.48 170.29 1195.64 173.849 1194.52 177.325C1194.06 178.707 1193.47 180.55 1192.68 182.476C1190.72 183.272 1188.92 183.858 1187.54 184.319C1184.08 185.449 1180.57 186.287 1176.98 186.915C1174.01 189.009 1170.92 190.893 1167.7 192.568C1166.41 193.238 1164.7 194.118 1162.78 194.913C1160.86 194.076 1159.14 193.238 1157.85 192.568C1154.59 190.893 1151.54 189.009 1148.58 186.915C1145.03 186.287 1141.48 185.449 1138.01 184.319C1136.63 183.858 1134.8 183.272 1132.88 182.476C1132.08 180.508 1131.5 178.707 1131.04 177.325C1129.87 173.849 1129.03 170.29 1128.45 166.73ZM1154.72 152.492C1155.64 153.204 1156.51 153.958 1157.39 154.712C1157.31 155.842 1157.18 157.015 1157.06 158.145C1158.18 158.02 1159.35 157.936 1160.48 157.852C1161.23 158.732 1161.98 159.611 1162.69 160.532C1163.4 159.611 1164.16 158.732 1164.91 157.852C1166.03 157.936 1167.2 158.062 1168.33 158.145C1168.21 157.015 1168.12 155.842 1168.04 154.712C1168.92 153.958 1169.79 153.204 1170.71 152.492C1169.79 151.78 1168.92 151.026 1168.04 150.273C1168.12 149.142 1168.25 147.969 1168.33 146.839C1167.2 146.964 1166.03 147.048 1164.91 147.174C1164.16 146.294 1163.4 145.415 1162.69 144.494C1161.98 145.415 1161.23 146.294 1160.48 147.174C1159.35 147.09 1158.18 146.964 1157.06 146.839C1157.18 147.969 1157.26 149.142 1157.39 150.273C1156.51 151.026 1155.64 151.738 1154.72 152.492Z" fill="white" fill-opacity="0.1"/>
<path d="M980.735 152.492C981.403 163.882 982.447 175.231 983.7 186.58C985.12 199.31 986.874 212.083 988.503 224.897C996.396 235.115 1004.12 245.375 1012.1 255.384C1019.2 264.304 1026.51 273.056 1034.02 281.557C1042.54 289.137 1051.27 296.423 1060.12 303.542C1070.11 311.541 1080.34 319.33 1090.53 327.203C1103.31 328.836 1116.04 330.595 1128.7 332.019C1140.02 333.275 1151.33 334.28 1162.69 334.992C1174.05 334.322 1185.37 333.317 1196.69 332.019C1209.38 330.595 1222.12 328.836 1234.9 327.203C1245.09 319.288 1255.32 311.541 1265.3 303.542C1274.2 296.423 1282.93 289.095 1291.4 281.557C1298.96 273.014 1306.23 264.262 1313.33 255.384C1321.31 245.375 1329.07 235.115 1336.93 224.897C1338.55 212.083 1340.31 199.31 1341.73 186.58C1342.98 175.231 1343.98 163.882 1344.69 152.492C1344.02 141.101 1343.02 129.753 1341.73 118.404C1340.31 105.673 1338.55 92.901 1336.93 80.0866C1329.03 69.8686 1321.31 59.6087 1313.33 49.6001C1306.23 40.6803 1298.92 31.928 1291.4 23.427C1282.88 15.8473 1274.16 8.56067 1265.3 1.44158C1255.32 -6.55693 1245.09 -14.3461 1234.9 -22.2189C1222.12 -23.8521 1209.38 -25.611 1196.69 -27.0348C1185.41 -28.2911 1174.09 -29.338 1162.73 -30.0081C1151.38 -29.338 1140.06 -28.2911 1128.74 -27.0348C1116.04 -25.611 1103.31 -23.8521 1090.57 -22.2189C1080.38 -14.3042 1070.15 -6.55693 1060.17 1.44158C1051.27 8.56067 1042.54 15.8891 1034.07 23.427C1026.51 31.9699 1019.24 40.7222 1012.14 49.6001C1004.16 59.6087 996.396 69.8686 988.544 80.0866C986.916 92.901 985.162 105.673 983.742 118.404C982.447 129.753 981.403 141.101 980.735 152.492ZM1116.55 171.672C1112.2 165.641 1108.53 159.192 1106.44 152.492C1108.57 145.792 1112.24 139.343 1116.55 133.312C1117.72 125.984 1119.72 118.823 1122.94 112.583C1129.16 109.359 1136.3 107.39 1143.61 106.176C1149.62 101.821 1156.05 98.1356 1162.73 96.0417C1169.42 98.1775 1175.85 101.863 1181.86 106.176C1189.17 107.349 1196.31 109.359 1202.53 112.583C1205.75 118.823 1207.71 125.984 1208.92 133.312C1213.27 139.343 1216.94 145.792 1219.03 152.492C1216.9 159.192 1213.23 165.641 1208.92 171.672C1207.75 179 1205.75 186.161 1202.53 192.401C1196.31 195.625 1189.17 197.593 1181.86 198.808C1175.85 203.163 1169.42 206.848 1162.73 208.942C1156.05 206.806 1149.62 203.121 1143.61 198.808C1136.3 197.635 1129.16 195.625 1122.94 192.401C1119.72 186.161 1117.72 179 1116.55 171.672ZM999.946 220.123C999.653 217.318 999.319 214.554 998.985 211.748C1002.66 204.168 1015.48 203.833 1022.54 202.409C1030.47 200.818 1038.33 198.934 1046.05 196.463C1060.04 192.024 1073.36 185.826 1085.22 177.116C1086.52 179.126 1087.81 181.094 1089.19 183.02C1089.61 185.365 1090.07 187.669 1090.57 190.014C1076.04 192.275 1062.25 197.3 1049.22 204.126C1042.04 207.853 1035.15 212.125 1028.43 216.606C1022.46 220.626 1013.14 229.462 1005.21 226.698C1003.41 224.479 1001.66 222.301 999.946 220.123ZM999.946 84.8606C1001.7 82.683 1003.45 80.4635 1005.17 78.2859C1013.1 75.522 1022.41 84.3999 1028.39 88.3782C1035.11 92.8591 1042.04 97.1305 1049.18 100.858C1062.21 107.642 1075.99 112.709 1090.53 114.97C1090.03 117.273 1089.57 119.618 1089.15 121.964C1087.81 123.89 1086.48 125.858 1085.18 127.868C1073.32 119.158 1060 112.96 1046.01 108.521C1038.28 106.092 1030.43 104.166 1022.5 102.575C1015.44 101.151 1002.62 100.816 998.943 93.2779C999.319 90.4721 999.611 87.6663 999.946 84.8606ZM1095.29 -10.7446C1098.09 -11.0378 1100.84 -11.3728 1103.64 -11.7078C1111.2 -8.02263 1111.53 4.83361 1112.91 11.9108C1114.5 19.8675 1116.38 27.7403 1118.84 35.4876C1123.27 49.5164 1129.45 62.8751 1138.14 74.7682C1136.13 76.0664 1134.17 77.3646 1132.25 78.7465C1129.91 79.1653 1127.61 79.6259 1125.27 80.1285C1123.02 65.5553 1118.01 51.7359 1111.2 38.6702C1107.48 31.4674 1103.22 24.5577 1098.76 17.8155C1094.75 11.8271 1085.93 2.4885 1088.69 -5.46813C1090.9 -7.26884 1093.12 -9.02768 1095.29 -10.7446ZM1230.18 -10.7446C1232.35 -8.9858 1234.57 -7.22696 1236.74 -5.51001C1239.49 2.44662 1230.64 11.7852 1226.67 17.7736C1222.2 24.5158 1217.94 31.4674 1214.23 38.6284C1207.46 51.694 1202.41 65.5134 1200.15 80.0866C1197.86 79.5841 1195.52 79.1234 1193.18 78.7047C1191.26 77.3227 1189.3 76.0245 1187.29 74.7263C1195.98 62.8333 1202.16 49.4745 1206.59 35.4457C1209.01 27.6985 1210.93 19.8256 1212.52 11.8689C1213.94 4.79174 1214.27 -8.0645 1221.83 -11.7497C1224.58 -11.3728 1227.38 -11.0796 1230.18 -10.7446ZM1325.52 84.8606C1325.82 87.6663 1326.15 90.4302 1326.48 93.236C1322.81 100.816 1309.99 101.151 1302.93 102.533C1295 104.124 1287.14 106.008 1279.42 108.479C1265.43 112.918 1252.11 119.116 1240.25 127.826C1238.95 125.816 1237.66 123.848 1236.28 121.922C1235.86 119.577 1235.4 117.273 1234.9 114.928C1249.43 112.667 1263.21 107.642 1276.24 100.816C1283.43 97.0887 1290.32 92.8172 1297.04 88.3364C1303.01 84.3162 1312.33 75.4801 1320.26 78.244C1322.02 80.4635 1323.77 82.683 1325.52 84.8606ZM1325.52 220.123C1323.77 222.301 1322.02 224.52 1320.3 226.698C1312.37 229.462 1303.06 220.584 1297.08 216.606C1290.36 212.125 1283.47 207.853 1276.29 204.126C1263.26 197.342 1249.48 192.275 1234.94 190.014C1235.44 187.711 1235.9 185.365 1236.32 183.02C1237.7 181.094 1238.99 179.126 1240.29 177.116C1252.15 185.826 1265.47 192.024 1279.46 196.463C1287.19 198.892 1295.04 200.818 1302.97 202.409C1310.03 203.833 1322.85 204.168 1326.53 211.748C1326.15 214.512 1325.82 217.318 1325.52 220.123ZM1230.18 315.729C1227.38 316.022 1224.63 316.357 1221.83 316.692C1214.27 313.007 1213.94 300.15 1212.52 293.073C1210.93 285.116 1209.05 277.244 1206.59 269.496C1202.16 255.467 1195.98 242.109 1187.29 230.216C1189.3 228.917 1191.26 227.619 1193.18 226.237C1195.52 225.819 1197.82 225.358 1200.15 224.855C1202.41 239.429 1207.42 253.248 1214.23 266.314C1217.94 273.517 1222.2 280.426 1226.67 287.168C1230.68 293.157 1239.49 302.495 1236.74 310.452C1234.52 312.211 1232.35 313.97 1230.18 315.729ZM1095.29 315.729C1093.12 313.97 1090.9 312.211 1088.73 310.494C1085.98 302.537 1094.83 293.199 1098.8 287.21C1103.27 280.468 1107.53 273.558 1111.24 266.355C1118.01 253.29 1123.06 239.47 1125.32 224.897C1127.61 225.4 1129.95 225.86 1132.29 226.279C1134.21 227.661 1136.17 228.959 1138.18 230.258C1129.49 242.151 1123.31 255.509 1118.88 269.538C1116.46 277.285 1114.54 285.158 1112.95 293.115C1111.53 300.192 1111.2 313.048 1103.68 316.734C1100.88 316.357 1098.09 316.022 1095.29 315.729ZM1072.15 152.492C1073.57 155.8 1075.08 159.067 1076.7 162.291C1075.12 169.62 1070.27 175.064 1063.97 179.209C1061.04 170.415 1058.29 161.495 1055.95 152.45C1058.29 143.405 1061.04 134.485 1063.97 125.733C1070.27 129.878 1075.12 135.364 1076.7 142.651C1075.08 145.875 1073.57 149.184 1072.15 152.492ZM1098.67 88.2526C1097.34 91.6028 1096.08 94.9948 1094.95 98.4287C1088.69 102.491 1081.42 102.91 1074.03 101.402C1078.17 93.1103 1082.51 84.8606 1087.23 76.8202C1095.25 72.0881 1103.47 67.7329 1111.74 63.5871C1113.25 70.9993 1112.83 78.2859 1108.78 84.5674C1105.4 85.6981 1102.01 86.9125 1098.67 88.2526ZM1162.73 61.6607C1159.44 63.0845 1156.18 64.5921 1152.96 66.2253C1145.65 64.634 1140.22 59.7762 1136.09 53.4528C1144.86 50.5214 1153.76 47.7575 1162.73 45.4124C1171.76 47.7575 1180.65 50.5214 1189.38 53.4528C1185.24 59.7762 1179.77 64.634 1172.51 66.2253C1169.29 64.5921 1166.03 63.0845 1162.73 61.6607ZM1226.76 88.2526C1223.42 86.9125 1220.03 85.6562 1216.61 84.5674C1212.56 78.2859 1212.14 70.9993 1213.64 63.5871C1221.91 67.7329 1230.14 72.0881 1238.16 76.8202C1242.88 84.8606 1247.22 93.1103 1251.35 101.402C1243.96 102.91 1236.7 102.491 1230.43 98.4287C1229.35 94.9948 1228.13 91.6028 1226.76 88.2526ZM1253.32 152.492C1251.9 149.184 1250.39 145.917 1248.77 142.693C1250.35 135.364 1255.2 129.92 1261.5 125.774C1264.43 134.569 1267.18 143.488 1269.52 152.492C1267.18 161.537 1264.43 170.457 1261.5 179.251C1255.2 175.106 1250.35 169.62 1248.77 162.333C1250.35 159.067 1251.9 155.8 1253.32 152.492ZM1226.76 216.689C1228.09 213.339 1229.35 209.947 1230.43 206.513C1236.7 202.451 1243.96 202.032 1251.35 203.54C1247.22 211.832 1242.88 220.081 1238.16 228.122C1230.14 232.854 1221.91 237.209 1213.64 241.355C1212.14 233.943 1212.56 226.656 1216.61 220.375C1220.07 219.286 1223.42 218.071 1226.76 216.689ZM1162.73 243.323C1166.03 241.899 1169.29 240.392 1172.51 238.759C1179.82 240.35 1185.24 245.208 1189.38 251.531C1180.61 254.462 1171.71 257.226 1162.73 259.571C1153.71 257.226 1144.82 254.462 1136.09 251.531C1140.22 245.208 1145.7 240.35 1152.96 238.759C1156.14 240.35 1159.44 241.899 1162.73 243.323ZM1098.67 216.689C1102.01 218.029 1105.4 219.286 1108.82 220.375C1112.87 226.656 1113.29 233.943 1111.78 241.355C1103.52 237.209 1095.29 232.854 1087.27 228.122C1082.55 220.081 1078.21 211.832 1074.07 203.54C1081.47 202.032 1088.73 202.451 1095 206.513C1096.12 209.989 1097.34 213.339 1098.67 216.689ZM1050.35 152.492C1052.9 162.501 1055.95 172.384 1059.21 182.057C1053.57 184.988 1047.22 187.124 1041.16 188.799C1037.32 176.948 1034.11 164.804 1031.94 152.492C1034.15 140.18 1037.32 128.036 1041.16 116.185C1047.22 117.86 1053.57 119.995 1059.21 122.927C1055.91 132.6 1052.86 142.483 1050.35 152.492ZM1083.26 72.8C1078 81.6779 1073.2 90.8071 1068.69 99.9782C1062.63 98.0518 1056.66 95.0786 1051.15 91.9378C1056.78 80.8404 1063.09 69.9524 1070.19 59.6925C1080.42 52.5315 1091.24 46.2081 1102.35 40.5966C1105.44 46.0825 1108.4 52.1128 1110.36 58.1849C1101.22 62.7076 1092.11 67.5235 1083.26 72.8ZM1162.73 39.8009C1152.75 42.3554 1142.9 45.4124 1133.25 48.6788C1130.33 43.0255 1128.2 36.6601 1126.53 30.588C1138.35 26.7353 1150.46 23.5108 1162.73 21.3332C1175.01 23.5526 1187.12 26.7353 1198.94 30.588C1197.27 36.6601 1195.14 43.0255 1192.22 48.6788C1182.53 45.3706 1172.72 42.3135 1162.73 39.8009ZM1242.21 72.8C1233.35 67.5235 1224.25 62.7076 1215.1 58.1849C1217.03 52.1128 1219.99 46.1243 1223.12 40.5966C1234.19 46.25 1245.05 52.5734 1255.28 59.6925C1262.42 69.9524 1268.73 80.7985 1274.32 91.9378C1268.85 95.0367 1262.84 98.01 1256.78 99.9782C1252.27 90.8071 1247.47 81.6779 1242.21 72.8ZM1275.12 152.492C1272.57 142.483 1269.52 132.6 1266.26 122.927C1271.9 119.995 1278.25 117.86 1284.3 116.185C1288.15 128.036 1291.36 140.18 1293.53 152.492C1291.32 164.804 1288.15 176.948 1284.3 188.799C1278.25 187.124 1271.9 184.988 1266.26 182.057C1269.52 172.342 1272.61 162.501 1275.12 152.492ZM1242.21 232.184C1247.47 223.306 1252.27 214.177 1256.78 205.006C1262.84 206.932 1268.81 209.905 1274.32 213.046C1268.69 224.144 1262.38 235.032 1255.28 245.291C1245.05 252.452 1234.23 258.776 1223.12 264.387C1220.03 258.901 1217.07 252.871 1215.1 246.799C1224.25 242.276 1233.35 237.46 1242.21 232.184ZM1162.73 265.183C1172.72 262.628 1182.57 259.571 1192.22 256.305C1195.14 261.958 1197.27 268.324 1198.94 274.396C1187.12 278.249 1175.01 281.473 1162.73 283.651C1150.46 281.431 1138.35 278.249 1126.53 274.396C1128.2 268.324 1130.33 261.958 1133.25 256.305C1142.9 259.571 1152.75 262.67 1162.73 265.183ZM1083.26 232.184C1092.11 237.46 1101.22 242.276 1110.36 246.799C1108.44 252.871 1105.48 258.86 1102.35 264.387C1091.28 258.734 1080.42 252.41 1070.19 245.291C1063.05 235.032 1056.74 224.185 1051.15 213.046C1056.62 209.947 1062.63 206.974 1068.69 205.006C1073.2 214.177 1078 223.306 1083.26 232.184ZM1026.38 152.492C1028.59 165.264 1031.85 177.869 1035.86 190.181C1033.27 190.809 1030.77 191.396 1028.51 191.898C1025.88 192.484 1023.08 192.987 1020.2 193.573C1015.9 180.131 1012.72 166.395 1010.93 152.492C1012.72 138.589 1015.9 124.853 1020.2 111.411C1023.08 111.955 1025.92 112.458 1028.51 113.086C1030.81 113.588 1033.27 114.174 1035.86 114.803C1031.81 127.114 1028.55 139.719 1026.38 152.492ZM1066.31 55.7979C1058.87 66.3928 1052.27 77.6159 1046.43 89.1739C1044.13 87.792 1042 86.41 1040 85.1956C1037.74 83.7718 1035.36 82.1386 1032.94 80.4635C1039.37 67.9004 1046.8 55.9236 1055.36 44.8262C1066.43 36.2832 1078.38 28.7873 1090.9 22.3382C1092.53 24.7671 1094.2 27.1541 1095.62 29.4154C1096.88 31.3836 1098.21 33.5612 1099.59 35.8645C1088.06 41.7273 1076.87 48.3438 1066.31 55.7979ZM1162.73 15.7635C1150 17.983 1137.43 21.2494 1125.15 25.2696C1124.52 22.6732 1123.94 20.1606 1123.44 17.8992C1122.85 15.261 1122.35 12.4552 1121.77 9.56572C1135.17 5.25238 1148.87 2.06973 1162.73 0.26902C1176.6 2.06973 1190.3 5.25238 1203.7 9.56572C1203.16 12.4552 1202.66 15.3029 1202.03 17.8992C1201.53 20.2025 1200.95 22.6732 1200.32 25.2696C1188.04 21.2075 1175.43 17.9411 1162.73 15.7635ZM1259.16 55.7979C1248.6 48.3438 1237.41 41.7273 1225.88 35.8645C1227.26 33.5612 1228.64 31.4255 1229.85 29.4154C1231.27 27.1541 1232.9 24.7671 1234.57 22.3382C1247.09 28.7873 1259.04 36.2414 1270.11 44.8262C1278.63 55.9236 1286.1 67.9004 1292.53 80.4635C1290.11 82.0967 1287.73 83.7718 1285.47 85.1956C1283.51 86.4519 1281.34 87.792 1279.04 89.1739C1273.15 77.6159 1266.6 66.3928 1259.16 55.7979ZM1299.09 152.492C1296.88 139.719 1293.62 127.114 1289.61 114.803C1292.2 114.174 1294.7 113.588 1296.96 113.086C1299.59 112.499 1302.39 111.997 1305.27 111.411C1309.57 124.853 1312.74 138.589 1314.54 152.492C1312.74 166.395 1309.57 180.131 1305.27 193.573C1302.39 193.029 1299.55 192.526 1296.96 191.898C1294.66 191.396 1292.2 190.809 1289.61 190.181C1293.62 177.869 1296.88 165.223 1299.09 152.492ZM1259.16 249.186C1266.6 238.591 1273.2 227.368 1279.04 215.81C1281.34 217.192 1283.47 218.574 1285.47 219.788C1287.73 221.212 1290.11 222.845 1292.53 224.52C1286.1 237.083 1278.67 249.06 1270.11 260.158C1259.04 268.701 1247.09 276.197 1234.57 282.646C1232.94 280.217 1231.27 277.83 1229.85 275.568C1228.59 273.6 1227.26 271.423 1225.88 269.119C1237.41 263.215 1248.6 256.64 1259.16 249.186ZM1162.73 289.22C1175.47 287.001 1188.04 283.734 1200.32 279.714C1200.95 282.311 1201.53 284.823 1202.03 287.085C1202.62 289.723 1203.12 292.529 1203.7 295.418C1190.3 299.732 1176.6 302.914 1162.73 304.715C1148.87 302.914 1135.17 299.732 1121.77 295.418C1122.31 292.529 1122.81 289.681 1123.44 287.085C1123.94 284.781 1124.52 282.311 1125.15 279.714C1137.43 283.734 1150 287.001 1162.73 289.22ZM1066.31 249.186C1076.87 256.64 1088.06 263.257 1099.59 269.119C1098.21 271.423 1096.83 273.558 1095.62 275.568C1094.2 277.83 1092.57 280.217 1090.9 282.646C1078.38 276.197 1066.43 268.743 1055.36 260.158C1046.84 249.06 1039.37 237.083 1032.94 224.52C1035.36 222.887 1037.74 221.212 1040 219.788C1041.96 218.532 1044.13 217.192 1046.43 215.81C1052.27 227.368 1058.87 238.591 1066.31 249.186ZM1005.37 152.492C1007.17 166.772 1010.39 180.926 1014.77 194.704C1008.34 196.17 1002.16 198.305 997.941 202.493C997.732 200.609 997.523 198.682 997.314 196.798C995.686 182.057 994.433 167.316 993.681 152.492C994.391 137.667 995.686 122.927 997.273 108.186C997.482 106.302 997.69 104.375 997.899 102.491C1002.12 106.678 1008.3 108.814 1014.73 110.28C1010.39 124.057 1007.13 138.212 1005.37 152.492ZM1051.44 40.8897C1042.63 52.2384 1034.94 64.5502 1028.34 77.4065C1022.75 73.8888 1016.9 70.9993 1010.93 70.9993C1012.1 69.4917 1013.31 67.9841 1014.52 66.5184C1023.75 54.9604 1033.27 43.6117 1043.21 32.6399C1054.15 22.6732 1065.47 13.1671 1077 3.87044C1078.5 2.65601 1079.96 1.48345 1081.47 0.26902C1081.47 6.21555 1084.35 12.1202 1087.86 17.7317C1075.03 24.3483 1062.8 32.0537 1051.44 40.8897ZM1162.73 -5.30062C1148.49 -3.49991 1134.38 -0.275383 1120.64 4.1217C1119.18 -2.32736 1117.05 -8.52515 1112.87 -12.7547C1114.75 -12.9641 1116.67 -13.1735 1118.55 -13.3829C1133.25 -15.0161 1147.95 -16.2724 1162.73 -17.0262C1177.48 -16.3143 1192.22 -15.0161 1206.92 -13.3829C1208.8 -13.1735 1210.72 -12.9641 1212.6 -12.7547C1208.42 -8.52515 1206.29 -2.32736 1204.83 4.1217C1191.09 -0.275383 1176.98 -3.54179 1162.73 -5.30062ZM1273.99 40.8897C1262.67 32.0537 1250.39 24.3483 1237.57 17.7317C1241.08 12.1202 1243.96 6.25743 1243.96 0.26902C1245.47 1.44158 1246.97 2.65601 1248.43 3.87044C1259.96 13.1253 1271.28 22.6732 1282.22 32.6399C1292.16 43.6117 1301.64 54.9604 1310.91 66.5184C1312.12 68.026 1313.29 69.4917 1314.5 70.9993C1308.57 70.9993 1302.68 73.8888 1297.08 77.4065C1290.49 64.5502 1282.8 52.2803 1273.99 40.8897ZM1320.1 152.492C1318.3 138.212 1315.08 124.057 1310.7 110.28C1317.13 108.814 1323.31 106.678 1327.53 102.491C1327.74 104.375 1327.95 106.302 1328.16 108.186C1329.78 122.927 1331.04 137.667 1331.79 152.492C1331.08 167.275 1329.78 182.057 1328.16 196.798C1327.95 198.682 1327.74 200.609 1327.53 202.493C1323.31 198.305 1317.13 196.17 1310.7 194.704C1315.08 180.926 1318.3 166.772 1320.1 152.492ZM1273.99 264.052C1282.8 252.704 1290.49 240.392 1297.08 227.536C1302.68 231.053 1308.53 233.943 1314.5 233.943C1313.29 235.45 1312.12 236.958 1310.91 238.424C1301.68 249.982 1292.16 261.33 1282.22 272.302C1271.28 282.269 1259.96 291.775 1248.43 301.072C1246.93 302.286 1245.47 303.459 1243.96 304.673C1243.96 298.726 1241.08 292.822 1237.57 287.21C1250.39 280.594 1262.67 272.888 1273.99 264.052ZM1162.73 310.285C1176.98 308.484 1191.09 305.259 1204.83 300.862C1206.29 307.311 1208.42 313.509 1212.6 317.739C1210.72 317.948 1208.8 318.157 1206.92 318.367C1192.22 320 1177.52 321.256 1162.73 322.01C1147.99 321.298 1133.25 320 1118.55 318.367C1116.67 318.157 1114.75 317.948 1112.87 317.739C1117.05 313.509 1119.18 307.311 1120.64 300.862C1134.38 305.259 1148.49 308.484 1162.73 310.285ZM1051.44 264.052C1062.76 272.888 1075.03 280.594 1087.86 287.21C1084.35 292.822 1081.47 298.685 1081.47 304.673C1079.96 303.459 1078.46 302.286 1077 301.072C1065.47 291.817 1054.15 282.269 1043.21 272.302C1033.27 261.33 1023.79 249.982 1014.52 238.424C1013.31 236.916 1012.14 235.45 1010.93 233.943C1016.86 233.943 1022.75 231.053 1028.34 227.536C1034.94 240.392 1042.63 252.704 1051.44 264.052ZM1097.54 152.492C1099.55 160.281 1103.77 167.903 1108.78 174.896C1110.2 183.397 1112.62 191.773 1116.67 198.682C1123.6 202.744 1131.91 205.173 1140.39 206.597C1147.41 211.622 1155.01 215.81 1162.73 217.862C1170.5 215.852 1178.1 211.622 1185.08 206.597C1193.56 205.173 1201.91 202.744 1208.8 198.682C1212.85 191.731 1215.27 183.397 1216.69 174.896C1221.7 167.861 1225.88 160.239 1227.93 152.492C1225.92 144.703 1221.7 137.081 1216.69 130.088C1215.27 121.587 1212.85 113.211 1208.8 106.302C1201.87 102.24 1193.56 99.8107 1185.08 98.3868C1178.06 93.3616 1170.46 89.1739 1162.73 87.1219C1154.97 89.132 1147.37 93.3616 1140.39 98.3868C1131.91 99.8107 1123.56 102.24 1116.67 106.302C1112.62 113.253 1110.2 121.587 1108.78 130.088C1103.72 137.081 1099.55 144.703 1097.54 152.492ZM1099.3 178.833C1093.28 170.499 1088.02 161.705 1083.72 152.492C1088.02 143.279 1093.28 134.485 1099.3 126.151C1100.93 115.975 1103.39 106.05 1106.86 96.4605C1116.42 92.9847 1126.32 90.514 1136.47 88.8808C1144.78 82.8505 1153.55 77.574 1162.73 73.2606C1171.92 77.574 1180.69 82.8505 1189 88.8808C1199.15 90.514 1209.05 92.9847 1218.61 96.4605C1222.08 106.05 1224.54 115.975 1226.17 126.151C1232.19 134.485 1237.45 143.279 1241.75 152.492C1237.45 161.705 1232.19 170.499 1226.17 178.833C1224.54 189.009 1222.08 198.934 1218.61 208.523C1209.05 211.999 1199.15 214.47 1189 216.103C1180.69 222.133 1171.92 227.41 1162.73 231.723C1153.55 227.41 1144.78 222.133 1136.47 216.103C1126.32 214.47 1116.42 211.999 1106.86 208.523C1103.39 198.934 1100.88 189.009 1099.3 178.833Z" fill="white" fill-opacity="0.1"/>
</g>
</g>
<defs>
<filter id="filter0_d" x="-72.9692" y="-69" width="1427.49" height="467.853" filterUnits="userSpaceOnUse" color-interpolation-filters="sRGB">
<feFlood flood-opacity="0" result="BackgroundImageFix"/>
<feColorMatrix in="SourceAlpha" type="matrix" values="0 0 0 0 0 0 0 0 0 0 0 0 0 0 0 0 0 0 127 0"/>
<feOffset dy="4"/>
<feGaussianBlur stdDeviation="36.5"/>
<feColorMatrix type="matrix" values="0 0 0 0 0 0 0 0 0 0 0 0 0 0 0 0 0 0 0.25 0"/>
<feBlend mode="normal" in2="BackgroundImageFix" result="effect1_dropShadow"/>
<feBlend mode="normal" in="SourceGraphic" in2="effect1_dropShadow" result="shape"/>
</filter>
<radialGradient id="paint0_radial" cx="0" cy="0" r="1" gradientUnits="userSpaceOnUse" gradientTransform="translate(1256.73 160.927) rotate(-180) scale(1094.75 5402.8)">
<stop stop-color="#2F2F2F"/>
<stop offset="1" stop-color="#171717"/>
</radialGradient>
<clipPath id="clip0">
<rect x="0.0307617" width="1282" height="322" rx="15" fill="white"/>
</clipPath>
<clipPath id="clip1">
<rect width="364" height="365" fill="white" transform="translate(980.735 -30.0081)"/>
</clipPath>
</defs>
</svg>
