<svg width="15" height="15" viewBox="0 0 15 15" fill="none" xmlns="http://www.w3.org/2000/svg">
<path d="M9.38062 12.6663C11.438 11.7638 12.88 9.80268 12.88 7.41626C12.88 5.02984 11.438 3.06868 9.38062 2.16626V3.33293C10.773 4.14143 11.7134 5.69368 11.7134 7.41626C11.7134 9.13884 10.773 10.6911 9.38062 11.4996V12.6663Z" fill="#C9AC8C"/>
<path d="M9.38078 4.49958V10.3329C10.0954 9.69125 10.5474 8.44933 10.5474 7.41625C10.5474 6.38316 10.0954 5.14125 9.38078 4.49958ZM2.38078 10.3329H3.95403L8.21411 13.1726V1.65991L3.95403 4.49958H2.38078C1.73736 4.49958 1.21411 5.02283 1.21411 5.66625V9.16624C1.21411 9.80966 1.73736 10.3329 2.38078 10.3329Z" fill="#C9AC8C"/>
</svg>
